<svg xmlns="http://www.w3.org/2000/svg" xmlns:xlink="http://www.w3.org/1999/xlink" width="500" zoomAndPan="magnify" viewBox="0 0 375 374.999991" height="500" preserveAspectRatio="xMidYMid meet" version="1.0"><defs><clipPath id="id1"><path d="M 0 26.164062 L 375 26.164062 L 375 348.664062 L 0 348.664062 Z M 0 26.164062 " clip-rule="nonzero"/></clipPath></defs><g clip-path="url(#id1)"><path fill="rgb(21.958923%, 66.268921%, 89.408875%)" d="M 348.671875 84.449219 L 348.671875 54.152344 C 348.671875 53.71875 348.5 53.371094 348.238281 53.113281 C 347.980469 52.855469 347.632812 52.679688 347.199219 52.679688 L 86.953125 52.679688 C 86.519531 52.679688 86.171875 52.855469 85.914062 53.113281 C 85.652344 53.371094 85.480469 53.71875 85.480469 54.152344 L 85.480469 72.9375 L 59.152344 72.9375 L 59.152344 54.152344 C 59.152344 46.535156 62.269531 39.523438 67.292969 34.503906 C 72.316406 29.480469 79.242188 26.367188 86.953125 26.367188 L 347.199219 26.367188 C 354.820312 26.367188 361.835938 29.480469 366.859375 34.503906 C 371.882812 39.523438 375 46.449219 375 54.152344 L 375 84.449219 C 375 92.066406 371.882812 99.078125 366.859375 104.097656 L 366.773438 104.097656 C 361.75 109.117188 354.820312 112.234375 347.199219 112.234375 L 85.480469 112.234375 L 85.480469 134.652344 C 85.480469 134.914062 85.480469 135.085938 85.566406 135.171875 L 85.566406 135.257812 C 85.566406 135.347656 85.738281 135.519531 85.914062 135.691406 C 105.570312 156.035156 125.230469 176.375 144.804688 196.71875 L 149.828125 201.910156 L 151.472656 203.644531 C 151.644531 203.816406 151.820312 203.988281 151.90625 203.988281 C 151.992188 203.988281 152.164062 203.988281 152.511719 203.988281 L 295.84375 203.988281 C 296.277344 203.988281 296.621094 203.816406 296.882812 203.554688 C 297.140625 203.296875 297.316406 202.949219 297.316406 202.519531 L 297.316406 172.222656 C 297.316406 171.789062 297.140625 171.441406 296.882812 171.183594 C 296.621094 170.921875 296.277344 170.75 295.84375 170.75 L 152.339844 170.75 C 151.992188 170.75 151.820312 170.75 151.730469 170.75 C 151.644531 170.75 151.472656 170.921875 151.300781 171.097656 L 144.628906 177.761719 L 126.445312 158.890625 L 132.851562 152.570312 C 135.449219 149.976562 138.480469 147.898438 141.859375 146.597656 C 145.238281 145.214844 148.789062 144.523438 152.425781 144.523438 L 295.929688 144.523438 C 303.550781 144.523438 310.566406 147.636719 315.589844 152.660156 C 320.613281 157.679688 323.730469 164.605469 323.730469 172.308594 L 323.730469 202.605469 C 323.730469 210.222656 320.613281 217.234375 315.589844 222.253906 L 315.503906 222.253906 C 310.480469 227.273438 303.550781 230.390625 295.929688 230.390625 L 152.597656 230.390625 C 148.789062 230.390625 145.148438 229.613281 141.773438 228.226562 C 138.394531 226.753906 135.363281 224.675781 132.679688 221.90625 L 116.917969 205.632812 L 86 236.277344 C 85.824219 236.449219 85.738281 236.621094 85.652344 236.710938 C 85.652344 236.796875 85.566406 236.96875 85.566406 237.316406 L 85.566406 249.78125 L 59.238281 249.78125 L 59.238281 237.316406 C 59.238281 233.59375 59.929688 230.042969 61.316406 226.667969 C 62.703125 223.378906 64.78125 220.347656 67.464844 217.664062 L 98.644531 186.675781 L 67.03125 153.957031 C 64.519531 151.359375 62.527344 148.417969 61.230469 145.128906 C 59.929688 141.839844 59.238281 138.375 59.238281 134.742188 L 59.238281 112.320312 L 27.800781 112.320312 C 27.367188 112.320312 27.019531 112.496094 26.761719 112.753906 C 26.5 113.011719 26.328125 113.359375 26.328125 113.792969 L 26.328125 261.207031 C 26.328125 261.640625 26.5 261.984375 26.761719 262.246094 C 27.019531 262.503906 27.367188 262.675781 27.800781 262.675781 L 347.285156 262.675781 C 354.90625 262.675781 361.921875 265.792969 366.945312 270.8125 C 371.96875 275.835938 375.085938 282.761719 375.085938 290.464844 L 375.085938 320.761719 C 375.085938 328.378906 371.96875 335.390625 366.945312 340.410156 C 361.921875 345.429688 354.996094 348.546875 347.285156 348.546875 L 87.039062 348.546875 C 79.417969 348.546875 72.402344 345.429688 67.378906 340.410156 C 62.355469 335.390625 59.238281 328.464844 59.238281 320.761719 L 59.238281 288.992188 L 27.800781 288.992188 C 20.179688 288.992188 13.25 285.875 8.226562 280.855469 L 8.140625 280.855469 C 3.117188 275.835938 0 268.910156 0 261.207031 L 0 113.792969 C 0 106.175781 3.117188 99.164062 8.140625 94.144531 C 13.164062 89.121094 20.09375 86.007812 27.800781 86.007812 L 347.285156 86.007812 C 347.71875 86.007812 348.066406 85.832031 348.324219 85.574219 C 348.585938 85.3125 348.757812 84.96875 348.757812 84.535156 Z M 85.480469 288.90625 L 85.480469 320.671875 C 85.480469 321.105469 85.652344 321.453125 85.914062 321.710938 C 86.171875 321.972656 86.519531 322.144531 86.953125 322.144531 L 347.199219 322.144531 C 347.632812 322.144531 347.980469 321.972656 348.238281 321.710938 C 348.5 321.453125 348.671875 321.105469 348.671875 320.671875 L 348.671875 290.378906 C 348.671875 289.945312 348.5 289.597656 348.238281 289.339844 C 347.980469 289.078125 347.632812 288.90625 347.199219 288.90625 Z M 85.480469 288.90625 " fill-opacity="1" fill-rule="evenodd"/></g></svg>