<svg xmlns="http://www.w3.org/2000/svg" width="84.75" viewBox="0 0 84.75 30" height="30" version="1.0"><defs><clipPath id="a"><path d="M 1.851562 3.683594 L 24.484375 3.683594 L 24.484375 22.664062 L 1.851562 22.664062 Z M 1.851562 3.683594"/></clipPath></defs><g clip-path="url(#a)"><path fill="#FFF" d="M 22.894531 7.113281 L 22.894531 5.332031 C 22.894531 5.304688 22.886719 5.285156 22.871094 5.269531 C 22.855469 5.253906 22.832031 5.242188 22.808594 5.242188 L 7.101562 5.242188 C 7.074219 5.242188 7.054688 5.253906 7.039062 5.269531 C 7.023438 5.285156 7.011719 5.304688 7.011719 5.332031 L 7.011719 6.4375 L 5.421875 6.4375 L 5.421875 5.332031 C 5.421875 4.882812 5.609375 4.46875 5.914062 4.175781 C 6.21875 3.878906 6.636719 3.695312 7.101562 3.695312 L 22.808594 3.695312 C 23.265625 3.695312 23.691406 3.878906 23.992188 4.175781 C 24.296875 4.46875 24.484375 4.878906 24.484375 5.332031 L 24.484375 7.113281 C 24.484375 7.5625 24.296875 7.976562 23.992188 8.269531 L 23.988281 8.269531 C 23.683594 8.566406 23.265625 8.75 22.808594 8.75 L 7.011719 8.75 L 7.011719 10.070312 C 7.011719 10.082031 7.011719 10.09375 7.015625 10.097656 L 7.015625 10.105469 C 7.015625 10.109375 7.027344 10.121094 7.039062 10.128906 C 8.222656 11.328125 9.410156 12.523438 10.59375 13.722656 L 10.894531 14.027344 L 10.996094 14.128906 C 11.003906 14.140625 11.015625 14.148438 11.019531 14.148438 C 11.027344 14.148438 11.035156 14.148438 11.058594 14.148438 L 19.707031 14.148438 C 19.734375 14.148438 19.753906 14.140625 19.769531 14.125 C 19.785156 14.109375 19.796875 14.089844 19.796875 14.0625 L 19.796875 12.28125 C 19.796875 12.253906 19.785156 12.234375 19.769531 12.21875 C 19.753906 12.203125 19.734375 12.191406 19.707031 12.191406 L 11.046875 12.191406 C 11.027344 12.191406 11.015625 12.191406 11.011719 12.191406 C 11.003906 12.191406 10.996094 12.203125 10.984375 12.214844 L 10.582031 12.605469 L 9.484375 11.496094 L 9.871094 11.125 C 10.027344 10.96875 10.210938 10.847656 10.414062 10.773438 C 10.617188 10.691406 10.832031 10.648438 11.050781 10.648438 L 19.710938 10.648438 C 20.171875 10.648438 20.597656 10.832031 20.898438 11.128906 C 21.203125 11.425781 21.390625 11.832031 21.390625 12.285156 L 21.390625 14.066406 C 21.390625 14.515625 21.203125 14.929688 20.898438 15.226562 L 20.894531 15.226562 C 20.589844 15.519531 20.171875 15.703125 19.710938 15.703125 L 11.0625 15.703125 C 10.832031 15.703125 10.613281 15.65625 10.410156 15.574219 C 10.207031 15.488281 10.023438 15.367188 9.859375 15.203125 L 8.910156 14.246094 L 7.042969 16.050781 C 7.03125 16.058594 7.027344 16.070312 7.023438 16.074219 C 7.023438 16.082031 7.015625 16.089844 7.015625 16.109375 L 7.015625 16.84375 L 5.429688 16.84375 L 5.429688 16.109375 C 5.429688 15.890625 5.46875 15.683594 5.554688 15.484375 C 5.636719 15.289062 5.761719 15.113281 5.925781 14.953125 L 7.804688 13.128906 L 5.898438 11.203125 C 5.746094 11.050781 5.625 10.878906 5.546875 10.683594 C 5.46875 10.492188 5.429688 10.289062 5.429688 10.074219 L 5.429688 8.753906 L 3.53125 8.753906 C 3.503906 8.753906 3.484375 8.765625 3.46875 8.78125 C 3.453125 8.796875 3.441406 8.816406 3.441406 8.839844 L 3.441406 17.515625 C 3.441406 17.542969 3.453125 17.5625 3.46875 17.578125 C 3.484375 17.59375 3.503906 17.605469 3.53125 17.605469 L 22.8125 17.605469 C 23.273438 17.605469 23.695312 17.789062 24 18.082031 C 24.300781 18.378906 24.488281 18.785156 24.488281 19.238281 L 24.488281 21.023438 C 24.488281 21.472656 24.300781 21.882812 24 22.179688 C 23.695312 22.472656 23.277344 22.65625 22.8125 22.65625 L 7.105469 22.65625 C 6.644531 22.65625 6.222656 22.472656 5.917969 22.179688 C 5.617188 21.882812 5.429688 21.476562 5.429688 21.023438 L 5.429688 19.152344 L 3.53125 19.152344 C 3.070312 19.152344 2.652344 18.96875 2.351562 18.671875 L 2.34375 18.671875 C 2.042969 18.378906 1.851562 17.972656 1.851562 17.515625 L 1.851562 8.839844 C 1.851562 8.390625 2.042969 7.980469 2.34375 7.683594 C 2.648438 7.390625 3.066406 7.207031 3.53125 7.207031 L 22.8125 7.207031 C 22.839844 7.207031 22.859375 7.195312 22.875 7.179688 C 22.890625 7.164062 22.902344 7.144531 22.902344 7.117188 Z M 7.011719 19.148438 L 7.011719 21.015625 C 7.011719 21.042969 7.023438 21.0625 7.039062 21.078125 C 7.054688 21.09375 7.074219 21.105469 7.101562 21.105469 L 22.808594 21.105469 C 22.832031 21.105469 22.855469 21.09375 22.871094 21.078125 C 22.886719 21.0625 22.894531 21.042969 22.894531 21.015625 L 22.894531 19.234375 C 22.894531 19.207031 22.886719 19.1875 22.871094 19.171875 C 22.855469 19.15625 22.832031 19.148438 22.808594 19.148438 Z M 7.011719 19.148438" fill-rule="evenodd"/></g><g fill="#FFF"><g><g><path d="M 0.65625 -0.210938 C 0.65625 -0.0664062 0.71875 0 0.863281 0 L 4.003906 0 C 5.234375 0 5.890625 -0.65625 5.890625 -1.882812 L 5.890625 -8.574219 C 5.890625 -9.800781 5.234375 -10.46875 4.003906 -10.46875 L 0.863281 -10.46875 C 0.71875 -10.46875 0.65625 -10.390625 0.65625 -10.261719 Z M 2.433594 -1.726562 L 2.433594 -8.742188 L 3.636719 -8.742188 C 3.980469 -8.742188 4.160156 -8.558594 4.160156 -8.207031 L 4.160156 -2.25 C 4.160156 -1.898438 3.980469 -1.726562 3.636719 -1.726562 Z M 2.433594 -1.726562" transform="translate(27.41 18.304)"/></g></g></g><g fill="#FFF"><g><g><path d="M 6.035156 -8.585938 C 6.035156 -9.816406 5.378906 -10.46875 4.148438 -10.46875 L 0.863281 -10.46875 C 0.734375 -10.46875 0.65625 -10.390625 0.65625 -10.261719 L 0.65625 -0.210938 C 0.65625 -0.078125 0.734375 0 0.863281 0 L 2.226562 0 C 2.355469 0 2.433594 -0.078125 2.433594 -0.210938 L 2.433594 -3.507812 L 3.335938 -3.507812 L 4.214844 -0.183594 C 4.242188 -0.0664062 4.304688 0 4.4375 0 L 5.796875 0 C 5.941406 0 6.019531 -0.078125 5.980469 -0.234375 L 5.078125 -3.664062 C 5.707031 -3.9375 6.035156 -4.515625 6.035156 -5.390625 Z M 2.433594 -5.234375 L 2.433594 -8.742188 L 3.730469 -8.742188 C 4.070312 -8.742188 4.253906 -8.558594 4.253906 -8.21875 L 4.253906 -5.757812 C 4.253906 -5.417969 4.070312 -5.234375 3.730469 -5.234375 Z M 2.433594 -5.234375" transform="translate(37.316 18.304)"/></g></g></g><g fill="#FFF"><g><g><path d="M 0.65625 -1.882812 C 0.65625 -0.65625 1.308594 0 2.539062 0 L 4.003906 0 C 5.234375 0 5.890625 -0.65625 5.890625 -1.882812 L 5.890625 -8.585938 C 5.890625 -9.816406 5.234375 -10.46875 4.003906 -10.46875 L 2.539062 -10.46875 C 1.308594 -10.46875 0.65625 -9.816406 0.65625 -8.585938 Z M 2.917969 -1.6875 C 2.578125 -1.6875 2.394531 -1.859375 2.394531 -2.210938 L 2.394531 -8.257812 C 2.394531 -8.597656 2.578125 -8.78125 2.917969 -8.78125 L 3.675781 -8.78125 C 4.019531 -8.78125 4.199219 -8.597656 4.199219 -8.257812 L 4.199219 -2.210938 C 4.199219 -1.859375 4.019531 -1.6875 3.675781 -1.6875 Z M 2.917969 -1.6875" transform="translate(47.365 18.304)"/></g></g></g><g fill="#FFF"><g><g><path d="M 5.890625 -10.261719 C 5.890625 -10.390625 5.8125 -10.46875 5.679688 -10.46875 L 0.863281 -10.46875 C 0.71875 -10.46875 0.65625 -10.390625 0.65625 -10.261719 L 0.65625 -0.210938 C 0.65625 -0.078125 0.71875 0 0.863281 0 L 2.226562 0 C 2.355469 0 2.433594 -0.078125 2.433594 -0.210938 L 2.433594 -4.382812 L 4.894531 -4.382812 C 5.027344 -4.382812 5.105469 -4.449219 5.105469 -4.59375 L 5.105469 -5.902344 C 5.105469 -6.035156 5.027344 -6.113281 4.894531 -6.113281 L 2.433594 -6.113281 L 2.433594 -8.742188 L 5.679688 -8.742188 C 5.8125 -8.742188 5.890625 -8.820312 5.890625 -8.953125 Z M 5.890625 -10.261719" transform="translate(57.27 18.304)"/></g></g></g><g fill="#FFF"><g><g><path d="M 0.601562 -10.46875 C 0.472656 -10.46875 0.394531 -10.390625 0.394531 -10.261719 L 0.394531 -8.953125 C 0.394531 -8.820312 0.472656 -8.742188 0.601562 -8.742188 L 2.121094 -8.742188 L 2.121094 -0.210938 C 2.121094 -0.0664062 2.199219 0 2.328125 0 L 3.691406 0 C 3.835938 0 3.898438 -0.0664062 3.898438 -0.210938 L 3.898438 -8.742188 L 5.417969 -8.742188 C 5.5625 -8.742188 5.628906 -8.820312 5.628906 -8.953125 L 5.628906 -10.261719 C 5.628906 -10.390625 5.5625 -10.46875 5.417969 -10.46875 Z M 0.601562 -10.46875" transform="translate(67.176 18.304)"/></g></g></g><g fill="#FFF"><g><g><path d="M 5.875 -10.261719 C 5.875 -10.390625 5.824219 -10.46875 5.667969 -10.46875 L 0.851562 -10.46875 C 0.734375 -10.46875 0.65625 -10.390625 0.65625 -10.261719 L 0.65625 -0.210938 C 0.65625 -0.078125 0.734375 0 0.851562 0 L 5.667969 0 C 5.824219 0 5.875 -0.078125 5.875 -0.210938 L 5.875 -1.519531 C 5.875 -1.664062 5.824219 -1.726562 5.667969 -1.726562 L 2.394531 -1.726562 L 2.394531 -4.371094 L 4.894531 -4.371094 C 5.027344 -4.371094 5.105469 -4.449219 5.105469 -4.59375 L 5.105469 -5.890625 C 5.105469 -6.035156 5.027344 -6.113281 4.894531 -6.113281 L 2.394531 -6.113281 L 2.394531 -8.730469 L 5.667969 -8.730469 C 5.824219 -8.730469 5.875 -8.820312 5.875 -8.953125 Z M 5.875 -10.261719" transform="translate(76.558 18.304)"/></g></g></g></svg>